<mxfile host="app.diagrams.net" agent="Mozilla/5.0 (Windows NT 10.0; Win64; x64) AppleWebKit/537.36 (KHTML, like Gecko) Chrome/133.0.0.0 Safari/537.36" version="26.0.16">
  <diagram name="Page-1" id="X-S92E6yqOzudj_SezhK">
    <mxGraphModel dx="836" dy="478" grid="1" gridSize="10" guides="1" tooltips="1" connect="1" arrows="1" fold="1" page="1" pageScale="1" pageWidth="850" pageHeight="1100" math="0" shadow="0">
      <root>
        <mxCell id="0" />
        <mxCell id="1" parent="0" />
        <mxCell id="Lqz0tg-mZHUdF-sl99Pc-23" value="" style="rounded=0;whiteSpace=wrap;html=1;fillColor=none;align=left;" parent="1" vertex="1">
          <mxGeometry x="40" y="40" width="760" height="780" as="geometry" />
        </mxCell>
        <mxCell id="Lqz0tg-mZHUdF-sl99Pc-4" value="Region 1" style="points=[[0,0],[0.25,0],[0.5,0],[0.75,0],[1,0],[1,0.25],[1,0.5],[1,0.75],[1,1],[0.75,1],[0.5,1],[0.25,1],[0,1],[0,0.75],[0,0.5],[0,0.25]];outlineConnect=0;gradientColor=none;html=1;whiteSpace=wrap;fontSize=12;fontStyle=0;container=1;pointerEvents=0;collapsible=0;recursiveResize=0;shape=mxgraph.aws4.group;grIcon=mxgraph.aws4.group_region;strokeColor=#00A4A6;fillColor=none;verticalAlign=top;align=left;spacingLeft=30;fontColor=#147EBA;" parent="1" vertex="1">
          <mxGeometry x="80" y="80" width="560" height="700" as="geometry" />
        </mxCell>
        <mxCell id="Lqz0tg-mZHUdF-sl99Pc-11" value="VPC 1" style="sketch=0;outlineConnect=0;html=1;whiteSpace=wrap;fontSize=12;fontStyle=0;shape=mxgraph.aws4.group;grIcon=mxgraph.aws4.group_vpc;strokeColor=#82b366;fillColor=none;verticalAlign=top;align=left;spacingLeft=30;dashed=0;" parent="Lqz0tg-mZHUdF-sl99Pc-4" vertex="1">
          <mxGeometry x="40" y="80" width="480" height="280" as="geometry" />
        </mxCell>
        <mxCell id="Lqz0tg-mZHUdF-sl99Pc-12" value="VPC 2" style="sketch=0;outlineConnect=0;html=1;whiteSpace=wrap;fontSize=12;fontStyle=0;shape=mxgraph.aws4.group;grIcon=mxgraph.aws4.group_vpc;strokeColor=#82b366;fillColor=none;verticalAlign=top;align=left;spacingLeft=30;dashed=0;" parent="Lqz0tg-mZHUdF-sl99Pc-4" vertex="1">
          <mxGeometry x="40" y="500" width="480" height="60" as="geometry" />
        </mxCell>
        <mxCell id="Lqz0tg-mZHUdF-sl99Pc-7" value="Availability Zone 1" style="fillColor=none;strokeColor=#147EBA;dashed=1;verticalAlign=top;fontStyle=0;fontColor=#147EBA;whiteSpace=wrap;html=1;" parent="Lqz0tg-mZHUdF-sl99Pc-4" vertex="1">
          <mxGeometry x="80" y="40" width="160" height="420" as="geometry" />
        </mxCell>
        <mxCell id="Lqz0tg-mZHUdF-sl99Pc-10" value="Availability&lt;br&gt;Zone 2" style="fillColor=none;strokeColor=#147EBA;dashed=1;verticalAlign=top;fontStyle=0;fontColor=#147EBA;whiteSpace=wrap;html=1;" parent="Lqz0tg-mZHUdF-sl99Pc-4" vertex="1">
          <mxGeometry x="270" y="40" width="90" height="620" as="geometry" />
        </mxCell>
        <mxCell id="Lqz0tg-mZHUdF-sl99Pc-18" value="Availability Zone 3" style="fillColor=none;strokeColor=#147EBA;dashed=1;verticalAlign=top;fontStyle=0;fontColor=#147EBA;whiteSpace=wrap;html=1;" parent="Lqz0tg-mZHUdF-sl99Pc-4" vertex="1">
          <mxGeometry x="400" y="460" width="80" height="200" as="geometry" />
        </mxCell>
        <mxCell id="Lqz0tg-mZHUdF-sl99Pc-15" value="Public subnet 1" style="points=[[0,0],[0.25,0],[0.5,0],[0.75,0],[1,0],[1,0.25],[1,0.5],[1,0.75],[1,1],[0.75,1],[0.5,1],[0.25,1],[0,1],[0,0.75],[0,0.5],[0,0.25]];outlineConnect=0;gradientColor=none;html=1;whiteSpace=wrap;fontSize=12;fontStyle=0;container=1;pointerEvents=0;collapsible=0;recursiveResize=0;shape=mxgraph.aws4.group;grIcon=mxgraph.aws4.group_security_group;grStroke=0;strokeColor=#7AA116;fillColor=#F2F6E8;verticalAlign=top;align=left;spacingLeft=30;fontColor=#248814;dashed=0;" parent="Lqz0tg-mZHUdF-sl99Pc-4" vertex="1">
          <mxGeometry x="80" y="150" width="160" height="50" as="geometry" />
        </mxCell>
        <mxCell id="Lqz0tg-mZHUdF-sl99Pc-14" value="Private subnet 1" style="points=[[0,0],[0.25,0],[0.5,0],[0.75,0],[1,0],[1,0.25],[1,0.5],[1,0.75],[1,1],[0.75,1],[0.5,1],[0.25,1],[0,1],[0,0.75],[0,0.5],[0,0.25]];outlineConnect=0;gradientColor=none;html=1;whiteSpace=wrap;fontSize=12;fontStyle=0;container=1;pointerEvents=0;collapsible=0;recursiveResize=0;shape=mxgraph.aws4.group;grIcon=mxgraph.aws4.group_security_group;grStroke=0;strokeColor=#00A4A6;fillColor=#E6F6F7;verticalAlign=top;align=left;spacingLeft=30;fontColor=#147EBA;dashed=0;" parent="Lqz0tg-mZHUdF-sl99Pc-4" vertex="1">
          <mxGeometry x="80" y="250" width="160" height="50" as="geometry" />
        </mxCell>
        <mxCell id="Lqz0tg-mZHUdF-sl99Pc-17" value="Data&lt;br&gt;center 1" style="verticalLabelPosition=bottom;html=1;verticalAlign=top;strokeWidth=1;align=center;outlineConnect=0;dashed=0;outlineConnect=0;shape=mxgraph.aws3d.dataCenter;strokeColor=#5E5E5E;aspect=fixed;" parent="Lqz0tg-mZHUdF-sl99Pc-4" vertex="1">
          <mxGeometry x="110" y="380" width="25.99" height="30" as="geometry" />
        </mxCell>
        <mxCell id="Lqz0tg-mZHUdF-sl99Pc-19" value="Data&lt;br&gt;center 2" style="verticalLabelPosition=bottom;html=1;verticalAlign=top;strokeWidth=1;align=center;outlineConnect=0;dashed=0;outlineConnect=0;shape=mxgraph.aws3d.dataCenter;strokeColor=#5E5E5E;aspect=fixed;" parent="Lqz0tg-mZHUdF-sl99Pc-4" vertex="1">
          <mxGeometry x="180" y="380" width="25.99" height="30" as="geometry" />
        </mxCell>
        <mxCell id="Lqz0tg-mZHUdF-sl99Pc-20" value="Private subnet 2" style="points=[[0,0],[0.25,0],[0.5,0],[0.75,0],[1,0],[1,0.25],[1,0.5],[1,0.75],[1,1],[0.75,1],[0.5,1],[0.25,1],[0,1],[0,0.75],[0,0.5],[0,0.25]];outlineConnect=0;gradientColor=none;html=1;whiteSpace=wrap;fontSize=12;fontStyle=0;container=1;pointerEvents=0;collapsible=0;recursiveResize=0;shape=mxgraph.aws4.group;grIcon=mxgraph.aws4.group_security_group;grStroke=0;strokeColor=#00A4A6;fillColor=#E6F6F7;verticalAlign=top;align=left;spacingLeft=30;fontColor=#147EBA;dashed=0;" parent="Lqz0tg-mZHUdF-sl99Pc-4" vertex="1">
          <mxGeometry x="270" y="250" width="90" height="50" as="geometry" />
        </mxCell>
        <mxCell id="Lqz0tg-mZHUdF-sl99Pc-21" value="Data&lt;br&gt;center 3" style="verticalLabelPosition=bottom;html=1;verticalAlign=top;strokeWidth=1;align=center;outlineConnect=0;dashed=0;outlineConnect=0;shape=mxgraph.aws3d.dataCenter;strokeColor=#5E5E5E;aspect=fixed;" parent="Lqz0tg-mZHUdF-sl99Pc-4" vertex="1">
          <mxGeometry x="302" y="580" width="25.99" height="30" as="geometry" />
        </mxCell>
        <mxCell id="Lqz0tg-mZHUdF-sl99Pc-22" value="Data&lt;br&gt;center 4" style="verticalLabelPosition=bottom;html=1;verticalAlign=top;strokeWidth=1;align=center;outlineConnect=0;dashed=0;outlineConnect=0;shape=mxgraph.aws3d.dataCenter;strokeColor=#5E5E5E;aspect=fixed;" parent="Lqz0tg-mZHUdF-sl99Pc-4" vertex="1">
          <mxGeometry x="427" y="580" width="25.99" height="30" as="geometry" />
        </mxCell>
        <mxCell id="yBcSkH9uEEbStXQqthJ0-1" value="Public subnet 2" style="points=[[0,0],[0.25,0],[0.5,0],[0.75,0],[1,0],[1,0.25],[1,0.5],[1,0.75],[1,1],[0.75,1],[0.5,1],[0.25,1],[0,1],[0,0.75],[0,0.5],[0,0.25]];outlineConnect=0;gradientColor=none;html=1;whiteSpace=wrap;fontSize=12;fontStyle=0;container=1;pointerEvents=0;collapsible=0;recursiveResize=0;shape=mxgraph.aws4.group;grIcon=mxgraph.aws4.group_security_group;grStroke=0;strokeColor=#7AA116;fillColor=#F2F6E8;verticalAlign=top;align=left;spacingLeft=30;fontColor=#248814;dashed=0;" vertex="1" parent="Lqz0tg-mZHUdF-sl99Pc-4">
          <mxGeometry x="270" y="510" width="90" height="40" as="geometry" />
        </mxCell>
        <mxCell id="yBcSkH9uEEbStXQqthJ0-2" value="Private subnet 3" style="points=[[0,0],[0.25,0],[0.5,0],[0.75,0],[1,0],[1,0.25],[1,0.5],[1,0.75],[1,1],[0.75,1],[0.5,1],[0.25,1],[0,1],[0,0.75],[0,0.5],[0,0.25]];outlineConnect=0;gradientColor=none;html=1;whiteSpace=wrap;fontSize=12;fontStyle=0;container=1;pointerEvents=0;collapsible=0;recursiveResize=0;shape=mxgraph.aws4.group;grIcon=mxgraph.aws4.group_security_group;grStroke=0;strokeColor=#00A4A6;fillColor=#E6F6F7;verticalAlign=top;align=left;spacingLeft=30;fontColor=#147EBA;dashed=0;" vertex="1" parent="Lqz0tg-mZHUdF-sl99Pc-4">
          <mxGeometry x="400" y="510" width="80" height="40" as="geometry" />
        </mxCell>
        <mxCell id="Lqz0tg-mZHUdF-sl99Pc-9" value="Region 2" style="points=[[0,0],[0.25,0],[0.5,0],[0.75,0],[1,0],[1,0.25],[1,0.5],[1,0.75],[1,1],[0.75,1],[0.5,1],[0.25,1],[0,1],[0,0.75],[0,0.5],[0,0.25]];outlineConnect=0;gradientColor=none;html=1;whiteSpace=wrap;fontSize=12;fontStyle=0;container=1;pointerEvents=0;collapsible=0;recursiveResize=0;shape=mxgraph.aws4.group;grIcon=mxgraph.aws4.group_region;strokeColor=#00A4A6;fillColor=none;verticalAlign=top;align=left;spacingLeft=30;fontColor=#147EBA;" parent="1" vertex="1">
          <mxGeometry x="680" y="80" width="90" height="700" as="geometry" />
        </mxCell>
        <mxCell id="Lqz0tg-mZHUdF-sl99Pc-28" value="Geographic location" style="text;html=1;align=center;verticalAlign=middle;whiteSpace=wrap;rounded=0;" parent="1" vertex="1">
          <mxGeometry x="40" y="40" width="130" height="30" as="geometry" />
        </mxCell>
      </root>
    </mxGraphModel>
  </diagram>
</mxfile>
